<?xml version="1.0" standalone="no"?>
<!DOCTYPE svg PUBLIC "-//W3C//DTD SVG 20010904//EN"
 "http://www.w3.org/TR/2001/REC-SVG-20010904/DTD/svg10.dtd">
<svg version="1.0" xmlns="http://www.w3.org/2000/svg"
 width="500.000000pt" height="500.000000pt" viewBox="0 0 500.000000 500.000000"
 preserveAspectRatio="xMidYMid meet">

<g transform="translate(0.000000,500.000000) scale(0.100000,-0.100000)"
fill="#000000" stroke="none">
<path d="M0 2500 l0 -2500 2500 0 2500 0 0 2500 0 2500 -2500 0 -2500 0 0
-2500z m2550 1410 c0 -5 -7 -10 -16 -10 -8 0 -12 5 -9 10 3 6 10 10 16 10 5 0
9 -4 9 -10z m-290 -20 c0 -5 -5 -10 -11 -10 -5 0 -7 5 -4 10 3 6 8 10 11 10 2
0 4 -4 4 -10z m5 -70 c3 -5 1 -10 -4 -10 -6 0 -11 5 -11 10 0 6 2 10 4 10 3 0
8 -4 11 -10z m245 -20 c0 -5 -6 -10 -14 -10 -8 0 -18 5 -21 10 -3 6 3 10 14
10 12 0 21 -4 21 -10z m-131 -9 c24 -15 1 -31 -42 -29 -36 1 -37 2 -10 5 23 3
30 8 26 19 -6 16 5 18 26 5z m231 -1 c0 -5 -7 -7 -15 -4 -8 4 -15 8 -15 10 0
2 7 4 15 4 8 0 15 -4 15 -10z m457 4 c-3 -3 -12 -4 -19 -1 -8 3 -5 6 6 6 11 1
17 -2 13 -5z m-594 -21 c-7 -2 -19 -2 -25 0 -7 3 -2 5 12 5 14 0 19 -2 13 -5z
m110 -10 c-7 -2 -21 -2 -30 0 -10 3 -4 5 12 5 17 0 24 -2 18 -5z m-320 -10
c-7 -2 -19 -2 -25 0 -7 3 -2 5 12 5 14 0 19 -2 13 -5z m-56 -9 c-3 -3 -12 -4
-19 -1 -8 3 -5 6 6 6 11 1 17 -2 13 -5z m-597 -8 c0 -3 -4 -8 -10 -11 -5 -3
-10 -1 -10 4 0 6 5 11 10 11 6 0 10 -2 10 -4z m557 -2 c-3 -3 -12 -4 -19 -1
-8 3 -5 6 6 6 11 1 17 -2 13 -5z m-40 -10 c-3 -3 -12 -4 -19 -1 -8 3 -5 6 6 6
11 1 17 -2 13 -5z m-363 -25 c-3 -5 -10 -7 -15 -3 -5 3 -7 10 -3 15 3 5 10 7
15 3 5 -3 7 -10 3 -15z m576 11 c-49 -5 -89 -4 -94 1 -6 5 28 8 85 8 l94 -2
-85 -7z m250 -4 c0 -8 6 -17 13 -19 6 -3 2 -6 -10 -6 -37 -2 -55 9 -42 25 15
18 39 18 39 0z m230 -1 c-7 -9 -15 -13 -17 -11 -7 7 7 26 19 26 6 0 6 -6 -2
-15z m-627 -2 c-7 -2 -19 -2 -25 0 -7 3 -2 5 12 5 14 0 19 -2 13 -5z m310 0
c-7 -2 -19 -2 -25 0 -7 3 -2 5 12 5 14 0 19 -2 13 -5z m-483 -13 c-8 -5 -19
-10 -25 -10 -5 0 -3 5 5 10 8 5 20 10 25 10 6 0 3 -5 -5 -10z m98 3 c-10 -2
-18 -8 -18 -13 0 -4 -10 -6 -22 -2 -21 5 -21 6 -2 13 10 4 28 7 39 7 17 0 17
-1 3 -5z m616 -14 c-8 -14 -24 -10 -24 6 0 9 6 12 15 9 8 -4 12 -10 9 -15z
m-739 -17 c-3 -3 -11 0 -18 7 -9 10 -8 11 6 5 10 -3 15 -9 12 -12z m-29 -4 c5
-8 2 -9 -9 -5 -10 3 -17 2 -17 -3 0 -6 -5 -10 -11 -10 -6 0 -43 -16 -82 -36
-75 -37 -169 -108 -272 -203 l-60 -56 63 66 c34 36 60 68 57 71 -4 3 -1 9 6
14 8 5 10 3 4 -6 -5 -8 -3 -11 6 -8 8 3 13 12 11 20 -1 9 7 18 20 22 30 7 30
7 52 28 11 10 23 18 28 18 4 0 5 6 2 14 -6 15 22 30 31 16 3 -5 18 -1 34 8 16
9 28 19 26 22 -2 3 0 12 5 20 6 10 12 11 22 3 10 -8 20 -8 38 2 31 18 37 18
46 3z m1344 2 c0 -5 -5 -10 -11 -10 -5 0 -7 5 -4 10 3 6 8 10 11 10 2 0 4 -4
4 -10z m-330 -21 c0 -11 -4 -18 -10 -14 -5 3 -7 12 -3 20 7 21 13 19 13 -6z
m126 -17 c-10 -10 -29 15 -21 28 6 9 10 8 17 -4 6 -10 7 -20 4 -24z m-1058 -3
c-2 -6 -8 -10 -13 -10 -5 0 -11 4 -13 10 -2 6 4 11 13 11 9 0 15 -5 13 -11z
m146 -4 c-4 -8 -10 -12 -15 -9 -11 6 -2 24 11 24 5 0 7 -7 4 -15z m482 -15
c64 -11 140 -29 164 -38 8 -3 20 -4 25 -3 6 1 6 -2 -1 -9 -8 -8 -29 -6 -79 5
-38 9 -80 15 -92 12 -12 -2 -20 -1 -18 3 6 9 -242 2 -326 -10 -165 -24 -395
-118 -524 -215 -128 -96 -244 -225 -324 -362 -45 -76 -106 -223 -117 -280 l-7
-35 41 21 c50 26 184 71 209 71 10 0 -20 -13 -67 -29 -172 -59 -199 -78 -201
-138 0 -24 -1 -25 -8 -8 -5 11 -7 23 -4 28 11 19 -30 16 -83 -6 -103 -43 -220
-76 -310 -87 -188 -23 -325 43 -402 195 -31 63 -56 155 -44 167 17 17 29 1 36
-47 10 -67 70 -179 118 -220 99 -84 247 -101 436 -50 75 21 102 32 102 44 0
14 2 14 10 1 8 -13 10 -13 10 1 0 12 7 15 24 12 13 -3 38 3 55 12 27 13 30 19
20 31 -10 12 -9 17 4 27 8 7 20 28 25 47 75 260 257 511 481 664 29 20 59 36
65 36 7 0 27 11 46 25 63 47 272 116 390 130 30 4 57 9 59 11 9 8 230 4 287
-6z m184 0 c0 -5 -4 -10 -9 -10 -6 0 -13 5 -16 10 -3 6 1 10 9 10 9 0 16 -4
16 -10z m349 -19 c-15 -5 -22 6 -14 19 6 9 10 9 16 -1 5 -8 4 -15 -2 -18z
m-1293 -40 c-11 -18 -36 -13 -36 7 0 10 3 22 7 26 10 10 37 -20 29 -33z m-376
0 c0 -6 -4 -13 -10 -16 -5 -3 -10 1 -10 9 0 9 5 16 10 16 6 0 10 -4 10 -9z
m1470 -38 c0 -7 -39 17 -46 28 -3 6 5 3 20 -6 14 -10 26 -19 26 -22z m-64 11
c19 -15 19 -15 -1 -6 -11 5 -27 12 -35 15 -13 5 -13 6 1 6 8 1 24 -6 35 -15z
m153 -71 c2 -2 0 -3 -5 -3 -5 0 -25 14 -44 31 l-35 30 40 -27 c22 -16 42 -29
44 -31z m-1519 37 c0 -5 -4 -10 -10 -10 -5 0 -10 5 -10 10 0 6 5 10 10 10 6 0
10 -4 10 -10z m160 0 c0 -5 -2 -10 -4 -10 -3 0 -8 5 -11 10 -3 6 -1 10 4 10 6
0 11 -4 11 -10z m1500 -14 c0 -20 -19 -31 -32 -18 -6 6 -7 15 -4 21 10 16 36
13 36 -3z m-1700 -60 c0 -2 -8 -10 -17 -17 -16 -13 -17 -12 -4 4 13 16 21 21
21 13z m112 -11 c0 -5 -5 -11 -11 -13 -6 -2 -11 4 -11 13 0 9 5 15 11 13 6 -2
11 -8 11 -13z m1499 -2 c13 -16 12 -17 -3 -4 -17 13 -22 21 -14 21 2 0 10 -8
17 -17z m196 -23 c1 -11 -2 -20 -8 -20 -10 0 -12 23 -2 33 9 9 9 10 10 -13z
m-1837 -43 c0 -2 -10 -12 -22 -23 l-23 -19 19 23 c18 21 26 27 26 19z m10 -58
c0 -6 -4 -7 -10 -4 -5 3 -10 11 -10 16 0 6 5 7 10 4 6 -3 10 -11 10 -16z m110
0 c0 -5 -4 -9 -10 -9 -5 0 -10 7 -10 16 0 8 5 12 10 9 6 -3 10 -10 10 -16z
m-160 7 c0 -2 -8 -10 -17 -17 -16 -13 -17 -12 -4 4 13 16 21 21 21 13z m1945
-46 c3 -5 -1 -10 -10 -10 -9 0 -13 5 -10 10 3 6 8 10 10 10 2 0 7 -4 10 -10z
m-1905 -41 c0 -5 -9 -9 -20 -9 -22 0 -27 16 -7 23 15 5 27 -1 27 -14z m2020 1
c0 -5 -2 -10 -4 -10 -3 0 -8 5 -11 10 -3 6 -1 10 4 10 6 0 11 -4 11 -10z m110
-60 c0 -19 -11 -26 -23 -14 -8 8 3 34 14 34 5 0 9 -9 9 -20z m-2287 -17 c-10
-8 -12 -12 -5 -8 8 4 7 -5 -5 -29 -9 -20 -18 -34 -21 -32 -2 2 1 14 8 25 6 12
8 26 5 32 -11 17 3 39 20 33 14 -6 13 -8 -2 -21z m-133 -3 c0 -5 -4 -10 -10
-10 -5 0 -10 5 -10 10 0 6 5 10 10 10 6 0 10 -4 10 -10z m210 -50 c0 -13 -7
-20 -20 -20 -13 0 -20 7 -20 20 0 13 7 20 20 20 13 0 20 -7 20 -20z m-360 -10
c0 -5 -4 -10 -10 -10 -5 0 -10 5 -10 10 0 6 5 10 10 10 6 0 10 -4 10 -10z
m232 -24 c4 -19 1 -22 -14 -18 -20 5 -20 5 -12 26 9 23 21 20 26 -8z m1154 16
c31 -20 39 -59 38 -182 l-1 -125 37 38 c42 42 83 49 100 18 24 -45 11 -149
-42 -331 -17 -58 -31 -127 -32 -155 -1 -44 2 -50 21 -53 24 -4 65 45 123 146
19 34 39 62 43 62 20 0 -90 -168 -133 -204 -37 -30 -56 -32 -89 -10 -22 16
-23 21 -18 93 3 42 22 132 41 201 59 206 59 284 -1 229 -38 -37 -61 -88 -84
-196 -24 -111 -39 -137 -66 -110 -15 15 -16 23 -4 74 43 196 61 437 35 463
-21 21 -52 -8 -88 -83 -51 -108 -73 -193 -97 -387 -28 -222 -37 -258 -71 -283
-15 -12 -31 -18 -34 -14 -4 4 1 42 10 84 22 106 44 322 52 525 4 93 11 171 16
174 5 3 20 -2 35 -11 25 -17 25 -18 21 -120 -2 -57 -3 -103 -2 -102 1 1 14 34
30 72 57 144 118 215 160 187z m1248 -18 c4 -10 1 -14 -6 -12 -15 5 -23 28
-10 28 5 0 13 -7 16 -16z m116 6 c0 -5 -4 -10 -10 -10 -5 0 -10 5 -10 10 0 6
5 10 10 10 6 0 10 -4 10 -10z m-2547 -118 c-5 -22 -27 -30 -38 -13 -5 9 35 45
42 38 1 -2 0 -13 -4 -25z m2467 13 c0 -8 -2 -15 -4 -15 -2 0 -6 7 -10 15 -3 8
-1 15 4 15 6 0 10 -7 10 -15z m-1665 -28 c19 -30 30 -83 17 -91 -5 -3 -15 14
-21 38 -14 58 -45 70 -78 32 -34 -40 -31 -99 7 -159 16 -26 25 -47 19 -47 -5
0 -35 13 -67 29 -83 41 -126 53 -222 62 l-85 7 95 -2 c88 -3 126 -11 224 -51
17 -8 17 -6 2 23 -9 17 -16 52 -16 77 0 38 5 52 29 76 36 36 75 38 96 6z
m2065 -29 c0 -25 -98 -164 -156 -221 -52 -52 -143 -106 -219 -132 -72 -24
-283 -8 -380 30 -22 8 -29 13 -15 10 190 -43 235 -48 320 -36 121 17 191 54
276 143 40 43 85 103 107 146 34 64 67 94 67 60z m-3020 -17 c0 -6 -4 -13 -10
-16 -5 -3 -10 1 -10 9 0 9 5 16 10 16 6 0 10 -4 10 -9z m170 -66 c0 -8 -4 -15
-9 -15 -13 0 -22 16 -14 24 11 11 23 6 23 -9z m2407 -20 c0 -8 -4 -15 -8 -15
-11 0 -20 16 -12 24 11 11 20 7 20 -9z m-2470 -27 c-3 -8 -6 -5 -6 6 -1 11 2
17 5 13 3 -3 4 -12 1 -19z m-10 -60 c-3 -7 -5 -2 -5 12 0 14 2 19 5 13 2 -7 2
-19 0 -25z m1954 -64 c97 -22 82 -27 -22 -8 -119 23 -209 15 -293 -24 -37 -17
-80 -41 -96 -52 -33 -24 -65 -27 -35 -4 34 26 153 84 193 93 60 15 178 12 253
-5z m504 6 c3 -5 -1 -10 -10 -10 -9 0 -13 5 -10 10 3 6 8 10 10 10 2 0 7 -4
10 -10z m22 -32 c-3 -8 -6 -5 -6 6 -1 11 2 17 5 13 3 -3 4 -12 1 -19z m-402
-8 c13 -5 14 -9 5 -9 -8 0 -24 4 -35 9 -13 5 -14 9 -5 9 8 0 24 -4 35 -9z
m-2023 -45 c0 -5 -5 -11 -11 -13 -6 -2 -11 4 -11 13 0 9 5 15 11 13 6 -2 11
-8 11 -13z m2658 -25 c0 -5 -4 -10 -10 -10 -5 0 -10 5 -10 10 0 6 5 10 10 10
6 0 10 -4 10 -10z m-117 -105 c-3 -8 -9 -15 -14 -15 -10 0 -12 24 -3 33 11 11
24 -3 17 -18z m-2633 -11 c0 -8 -4 -12 -10 -9 -5 3 -10 10 -10 16 0 5 5 9 10
9 6 0 10 -7 10 -16z m2580 -4 c0 -5 -4 -10 -10 -10 -5 0 -10 5 -10 10 0 6 5
10 10 10 6 0 10 -4 10 -10z m-2553 -22 c-3 -8 -6 -5 -6 6 -1 11 2 17 5 13 3
-3 4 -12 1 -19z m-127 -48 c0 -5 -4 -10 -10 -10 -5 0 -10 5 -10 10 0 6 5 10
10 10 6 0 10 -4 10 -10z m115 -30 c0 -7 -6 -15 -12 -17 -8 -3 -13 4 -13 17 0
13 5 20 13 18 6 -3 12 -11 12 -18z m2619 -5 c-4 -8 -10 -15 -15 -15 -5 0 -9 7
-9 15 0 8 7 15 15 15 9 0 12 -6 9 -15z m-104 -67 c0 -27 -34 -19 -38 9 -3 17
1 20 17 16 12 -3 21 -14 21 -25z m200 12 c0 -5 -4 -10 -10 -10 -5 0 -10 5 -10
10 0 6 5 10 10 10 6 0 10 -4 10 -10z m-120 -45 c0 -8 -7 -15 -15 -15 -9 0 -12
6 -9 15 4 8 10 15 15 15 5 0 9 -7 9 -15z m-2550 -4 c0 -11 -29 -35 -35 -29
-10 9 7 38 21 38 8 0 14 -4 14 -9z m69 -110 c-15 -5 -22 6 -14 19 6 9 10 9 16
-1 5 -8 4 -15 -2 -18z m2359 7 c-6 -18 -25 -20 -31 -3 -5 10 0 15 14 15 12 0
19 -5 17 -12z m-3 -115 c-10 -27 -37 -88 -62 -136 -33 -68 -41 -92 -33 -102 9
-11 6 -16 -12 -26 -13 -7 -24 -10 -25 -8 -2 4 -53 -61 -53 -68 0 -2 5 -2 11 0
6 1 13 -3 16 -9 5 -15 -29 -28 -37 -14 -9 15 -45 -40 -41 -63 2 -13 -3 -18
-17 -15 -12 2 -40 -17 -77 -50 -103 -94 -296 -211 -400 -242 -22 -7 -44 -17
-50 -24 -5 -6 -28 -12 -50 -13 -21 -1 -46 -6 -55 -9 -25 -12 -56 -14 -258 -18
-115 -3 -190 -1 -186 5 3 5 -6 9 -20 9 -13 0 -33 3 -43 6 -15 5 -15 4 -3 -5
13 -9 11 -11 -7 -11 -12 0 -29 7 -37 16 -9 8 -46 26 -83 38 -38 13 -90 33
-116 45 -27 12 -54 18 -59 14 -7 -4 -8 -1 -3 7 6 10 4 12 -9 7 -11 -5 -15 -3
-10 5 5 8 2 9 -10 5 -10 -4 -15 -3 -11 3 3 6 -2 10 -13 10 -10 0 -28 9 -39 19
-12 11 -23 17 -26 15 -3 -3 -20 2 -37 11 -23 12 -29 20 -21 28 7 7 7 14 0 24
-14 16 -33 17 -23 1 4 -7 3 -8 -5 -4 -6 4 -9 11 -6 16 6 10 -65 74 -73 65 -3
-3 10 -19 29 -36 l34 -30 -38 27 c-43 31 -54 47 -62 95 -3 18 -11 40 -18 49
-6 8 28 -22 76 -68 159 -150 343 -254 481 -271 29 -3 49 -10 46 -16 -5 -10 35
-22 83 -24 38 -1 34 17 -5 22 -20 2 -10 4 25 5 56 2 58 1 41 -15 -17 -17 -14
-18 62 -23 43 -3 81 -2 82 2 2 5 25 7 50 7 l47 -2 -40 -7 c-37 -7 -36 -7 22
-9 183 -4 445 89 635 226 98 71 259 230 306 303 47 73 113 211 115 241 1 23
18 51 26 43 2 -2 -4 -25 -14 -51z m-95 -2 c0 -17 -18 -21 -24 -6 -3 9 0 15 9
15 8 0 15 -4 15 -9z m-2200 -45 c0 -2 -9 -6 -20 -9 -11 -3 -18 -1 -14 4 5 9
34 13 34 5z m2210 -75 c0 -12 -20 -25 -27 -18 -7 7 6 27 18 27 5 0 9 -4 9 -9z
m-487 -73 c-2 -4 -13 2 -24 13 -11 11 -25 17 -31 13 -6 -4 -8 -3 -4 4 3 6 2
13 -4 17 -6 4 -8 10 -5 15 6 10 72 -51 68 -62z m-1244 55 c0 -5 -7 -24 -15
-43 l-14 -35 6 35 6 35 -28 -25 -29 -25 29 33 c28 30 47 41 45 25z m51 -38 c0
-12 -44 -65 -53 -65 -6 0 -2 9 7 19 10 11 15 25 10 32 -4 8 -3 10 4 5 7 -4 12
-2 12 3 0 6 5 11 10 11 6 0 10 -2 10 -5z m1147 -32 c-6 -5 -67 21 -67 29 0 4
16 0 35 -9 19 -9 33 -18 32 -20z m623 23 c0 -3 -4 -8 -10 -11 -5 -3 -10 -1
-10 4 0 6 5 11 10 11 6 0 10 -2 10 -4z m-659 -33 c13 -16 12 -17 -3 -4 -17 13
-22 21 -14 21 2 0 10 -8 17 -17z m705 -20 c-10 -10 -19 5 -10 18 6 11 8 11 12
0 2 -7 1 -15 -2 -18z m-206 -3 c0 -5 -2 -10 -4 -10 -3 0 -8 5 -11 10 -3 6 -1
10 4 10 6 0 11 -4 11 -10z m-2070 -31 c0 -5 -4 -9 -10 -9 -5 0 -10 7 -10 16 0
8 5 12 10 9 6 -3 10 -10 10 -16z m559 -19 c-13 -22 -26 -40 -30 -40 -4 0 2 18
14 40 12 22 26 40 30 40 5 0 -2 -18 -14 -40z m881 30 c0 -5 -2 -10 -4 -10 -3
0 -8 5 -11 10 -3 6 -1 10 4 10 6 0 11 -4 11 -10z m-1389 -27 c13 -16 12 -17
-3 -4 -17 13 -22 21 -14 21 2 0 10 -8 17 -17z m1939 14 c0 -2 -10 -12 -22 -23
l-23 -19 19 23 c18 21 26 27 26 19z m-590 -38 c11 -25 18 -30 37 -26 16 3 21
1 15 -5 -17 -17 -42 -5 -63 30 -12 17 -17 32 -11 32 5 0 15 -14 22 -31z
m-1260 -76 c36 -37 55 -59 44 -50 -19 16 -22 16 -27 2 -9 -22 -27 -19 -27 5 0
11 5 20 12 20 7 0 -8 20 -32 45 -24 25 -42 45 -39 45 2 0 34 -30 69 -67z m579
18 c-7 -23 -15 -41 -19 -41 -4 0 0 20 8 44 20 55 28 53 11 -3z m-659 12 c0
-13 -3 -13 -15 -3 -8 7 -12 16 -9 21 8 13 24 1 24 -18z m1213 -15 c9 -21 12
-38 8 -38 -5 0 -12 11 -15 24 -3 13 -9 32 -13 43 -11 32 4 9 20 -29z m606 -25
c-30 -32 -76 -73 -104 -91 l-50 -33 38 31 c20 18 37 38 37 46 0 7 6 11 13 9 7
-3 35 17 62 45 68 69 71 63 4 -7z m-989 22 c-7 -8 -10 -28 -8 -45 5 -35 3 -37
-12 -9 -9 16 -8 26 5 45 8 13 18 24 21 24 4 0 1 -7 -6 -15z m60 -31 c0 -5 -6
-18 -13 -28 -11 -15 -12 -11 -9 25 3 28 7 37 13 28 5 -8 9 -19 9 -25z m132 -3
c2 -22 0 -37 -4 -35 -8 5 -11 74 -4 74 2 0 6 -18 8 -39z m58 5 c0 -13 -8 -30
-17 -37 -16 -13 -17 -12 -4 3 8 11 11 28 7 44 -5 17 -3 23 4 19 5 -3 10 -17
10 -29z m-1190 14 c0 -5 -4 -10 -10 -10 -5 0 -10 5 -10 10 0 6 5 10 10 10 6 0
10 -4 10 -10z m797 -26 c-3 -3 -12 -4 -19 -1 -8 3 -5 6 6 6 11 1 17 -2 13 -5z
m1519 -31 c-10 -10 -19 5 -10 18 6 11 8 11 12 0 2 -7 1 -15 -2 -18z m-155 -16
c-13 -13 -26 -3 -16 12 3 6 11 8 17 5 6 -4 6 -10 -1 -17z m-1711 3 c0 -5 -8
-10 -17 -10 -15 0 -16 2 -3 10 19 12 20 12 20 0z m1275 -29 c3 -5 1 -12 -4
-15 -5 -3 -11 1 -15 9 -6 16 9 21 19 6z m39 -46 c-4 -8 -11 -15 -16 -15 -6 0
-5 6 2 15 7 8 14 15 16 15 2 0 1 -7 -2 -15z m66 5 c0 -5 -4 -10 -10 -10 -5 0
-10 5 -10 10 0 6 5 10 10 10 6 0 10 -4 10 -10z m-1580 -10 c0 -5 -4 -10 -10
-10 -5 0 -10 5 -10 10 0 6 5 10 10 10 6 0 10 -4 10 -10z m1480 -15 c0 -2 -10
-9 -22 -15 -22 -11 -22 -10 -4 4 21 17 26 19 26 11z m-1180 -20 c0 -9 -6 -12
-15 -9 -8 4 -12 10 -9 15 8 14 24 10 24 -6z m1123 -24 c-3 -12 -13 -18 -29
-17 -13 0 -24 2 -24 3 0 2 51 31 57 33 0 0 -1 -8 -4 -19z m-213 -1 c-8 -5 -19
-10 -25 -10 -5 0 -3 5 5 10 8 5 20 10 25 10 6 0 3 -5 -5 -10z m98 -54 c-7 -8
-17 -12 -22 -9 -4 3 -2 9 5 14 22 13 31 11 17 -5z m-482 -23 c-10 -10 -19 5
-10 18 6 11 8 11 12 0 2 -7 1 -15 -2 -18z m311 0 c4 -10 11 -21 16 -24 5 -3
-6 -9 -24 -13 -18 -3 -34 -4 -37 -1 -3 3 -1 5 5 5 6 0 8 11 5 25 -3 18 0 25
12 25 9 0 20 -8 23 -17z m123 7 c-8 -5 -19 -10 -25 -10 -5 0 -3 5 5 10 8 5 20
10 25 10 6 0 3 -5 -5 -10z m-292 -22 c17 -17 15 -28 -4 -28 -10 0 -14 6 -11
14 3 8 1 17 -6 20 -7 2 -7 5 -1 5 5 1 15 -4 22 -11z m-578 -24 c0 -21 -17 -17
-23 5 -3 14 -1 18 9 14 8 -3 14 -11 14 -19z m523 19 c-7 -2 -19 -2 -25 0 -7 3
-2 5 12 5 14 0 19 -2 13 -5z m-65 -10 c-10 -2 -26 -2 -35 0 -10 3 -2 5 17 5
19 0 27 -2 18 -5z m612 -3 c0 -5 -2 -10 -4 -10 -3 0 -8 5 -11 10 -3 6 -1 10 4
10 6 0 11 -4 11 -10z m-383 -16 c-3 -3 -12 -4 -19 -1 -8 3 -5 6 6 6 11 1 17
-2 13 -5z m-44 -11 c-7 -2 -21 -2 -30 0 -10 3 -4 5 12 5 17 0 24 -2 18 -5z
m-543 -18 c0 -9 -6 -12 -15 -9 -8 4 -15 10 -15 15 0 5 7 9 15 9 8 0 15 -7 15
-15z m1000 -14 c0 -6 -4 -13 -10 -16 -5 -3 -10 1 -10 9 0 9 5 16 10 16 6 0 10
-4 10 -9z m-780 -65 c0 -3 -4 -8 -10 -11 -5 -3 -10 -1 -10 4 0 6 5 11 10 11 6
0 10 -2 10 -4z m-290 -10 c0 -11 -19 -15 -25 -6 -3 5 1 10 9 10 9 0 16 -2 16
-4z m800 -26 c0 -5 -4 -10 -10 -10 -5 0 -10 5 -10 10 0 6 5 10 10 10 6 0 10
-4 10 -10z m-530 -34 c0 -3 -4 -8 -10 -11 -5 -3 -10 -1 -10 4 0 6 5 11 10 11
6 0 10 -2 10 -4z m670 -36 c0 -5 -5 -10 -11 -10 -5 0 -7 5 -4 10 3 6 8 10 11
10 2 0 4 -4 4 -10z"/>
<path d="M1810 1376 c0 -2 7 -7 16 -10 8 -3 12 -2 9 4 -6 10 -25 14 -25 6z"/>
<path d="M2198 1243 c7 -3 16 -2 19 1 4 3 -2 6 -13 5 -11 0 -14 -3 -6 -6z"/>
</g>
</svg>
