<?xml version="1.0" standalone="no"?>
<!DOCTYPE svg PUBLIC "-//W3C//DTD SVG 20010904//EN"
 "http://www.w3.org/TR/2001/REC-SVG-20010904/DTD/svg10.dtd">
<svg version="1.0" xmlns="http://www.w3.org/2000/svg"
 width="250.000000pt" height="250.000000pt" viewBox="0 0 250.000000 250.000000"
 preserveAspectRatio="xMidYMid meet">

<g transform="translate(0.000000,250.000000) scale(0.100000,-0.100000)"
fill="#000000" stroke="none">
<path d="M0 1250 l0 -1250 1250 0 1250 0 0 1250 0 1250 -1250 0 -1250 0 0
-1250z m945 570 c3 -5 1 -10 -4 -10 -6 0 -11 5 -11 10 0 6 2 10 4 10 3 0 8 -4
11 -10z m-45 -24 c0 -3 -4 -8 -10 -11 -5 -3 -10 -1 -10 4 0 6 5 11 10 11 6 0
10 -2 10 -4z m475 -6 c17 -4 -11 -5 -61 -2 -271 15 -506 -134 -610 -386 -13
-32 -24 -49 -24 -38 0 10 18 56 40 103 71 151 219 275 380 317 58 15 224 19
275 6z m-420 -10 c3 -5 1 -10 -4 -10 -6 0 -11 5 -11 10 0 6 2 10 4 10 3 0 8
-4 11 -10z m-100 -20 c-3 -5 -12 -10 -18 -10 -7 0 -6 4 3 10 19 12 23 12 15 0z
m386 -267 c16 -43 -10 -263 -32 -263 -17 0 -18 20 -3 90 18 87 16 186 -4 182
-8 -1 -11 2 -7 8 12 19 35 10 46 -17z m-109 -50 c4 -66 -27 -302 -42 -317 -18
-18 -21 1 -10 65 5 35 13 119 17 187 4 88 10 122 19 122 8 0 13 -20 16 -57z
m-92 -4 c7 -11 9 -23 7 -26 -3 -2 -8 5 -12 16 -8 26 -30 27 -44 4 -6 -10 -11
-13 -11 -7 0 14 21 34 37 34 7 0 17 -9 23 -21z m-766 -31 c14 -75 62 -122 137
-137 33 -7 37 -9 16 -10 -66 -2 -135 52 -162 128 -18 51 -18 51 -6 51 5 0 12
-15 15 -32z m1768 -20 c-17 -24 -45 -56 -63 -73 -29 -26 -29 -25 6 16 22 25
48 60 58 79 10 18 20 30 23 27 3 -3 -8 -25 -24 -49z m-724 -21 c2 -15 -8 -72
-23 -127 -14 -56 -23 -106 -19 -112 4 -6 1 -9 -7 -6 -23 8 -21 51 6 153 15 53
24 103 21 112 -4 9 -1 13 6 11 7 -3 14 -17 16 -31z m-313 -17 c8 -13 -5 -13
-25 0 -13 8 -13 10 2 10 9 0 20 -4 23 -10z m-321 -25 c-4 -8 -10 -15 -15 -15
-5 0 -9 7 -9 15 0 8 7 15 15 15 9 0 12 -6 9 -15z m-54 -19 c0 -2 -7 -7 -16
-10 -8 -3 -12 -2 -9 4 6 10 25 14 25 6z m1155 -446 c3 -5 -1 -10 -10 -10 -9 0
-13 5 -10 10 3 6 8 10 10 10 2 0 7 -4 10 -10z m-53 -61 c-12 -5 -22 -15 -22
-24 0 -8 -4 -15 -9 -15 -5 0 -32 -19 -59 -42 -117 -99 -259 -144 -426 -134
-55 3 -104 10 -110 16 -5 5 -16 10 -23 10 -30 0 -179 82 -202 112 l-25 31 46
-35 c76 -58 169 -97 244 -103 17 -1 35 -5 40 -8 19 -11 164 -6 221 9 76 19
182 69 189 88 3 9 10 14 14 11 5 -3 35 19 67 49 32 30 62 51 67 48 5 -3 0 -9
-12 -13z m-347 -159 c3 -5 1 -10 -4 -10 -6 0 -11 5 -11 10 0 6 2 10 4 10 3 0
8 -4 11 -10z"/>
</g>
</svg>
